<?xml version="1.0" encoding="utf-8"?>
<!-- Generator: Adobe Illustrator 18.1.1, SVG Export Plug-In . SVG Version: 6.00 Build 0)  -->
<!DOCTYPE svg PUBLIC "-//W3C//DTD SVG 1.1//EN" "http://www.w3.org/Graphics/SVG/1.1/DTD/svg11.dtd">
<svg version="1.1" id="Warstwa_1" xmlns="http://www.w3.org/2000/svg" xmlns:xlink="http://www.w3.org/1999/xlink" x="0px" y="0px"
	 width="300px" height="300px" viewBox="0 0 300 300" enable-background="new 0 0 300 300" xml:space="preserve">
<path fill="none" stroke="#FFFFFF" stroke-width="4" stroke-miterlimit="10" d="M213.5,90v154c0,12.7-10.3,23-23,23h-94
	c-12.7,0-23-10.3-23-23V90"/>
<line fill="none" stroke="#FFFFFF" stroke-width="4" stroke-miterlimit="10" x1="73" y1="139" x2="147" y2="139"/>
<line fill="none" stroke="#FFFFFF" stroke-width="4" stroke-miterlimit="10" x1="185" y1="139" x2="213" y2="139"/>
<path fill="none" stroke="#FFFFFF" stroke-width="4" stroke-linecap="round" stroke-linejoin="round" stroke-miterlimit="10" d="
	M204.2,45.5c-7.3,0-13.8,3.3-18.2,8.5c-4.6-6.6-12.2-11-20.8-11c-3.5,0-6.9,0.7-9.9,2c-6-8.5-15.9-14-27.1-14
	c-12,0-22.6,6.4-28.4,16c-3.9-2.5-8.6-4-13.6-4C72.3,43,61,54.3,61,68.2s11.3,25.2,25.2,25.2c6.7,0,12.8-2.6,17.4-6.9
	c6.1,6.7,14.9,10.9,24.6,10.9c8.6,0,16.5-3.3,22.4-8.7c1.5-1,2.4-0.9,3.2,1.9c2.4,9.5,4,24.5-3.3,39.2c-12,24,7,33.5,17,33.5
	c0,0,31.2-2,14.5-36c0,0-11.9-23-0.7-39.8c1-1.8,2.1-3.1,3.3-4.6c4.3,5.7,12,9.9,19.7,9.9c13.1,0,23.8-10.6,23.8-23.8
	S217.4,45.5,204.2,45.5z"/>
<path fill="none" stroke="#FFFFFF" stroke-width="4" stroke-miterlimit="10" d="M213.7,107.8c24.4,0,44.1,23.2,44.1,51.9
	s-19.8,51.9-44.1,51.9"/>
</svg>
