<?xml version="1.0" encoding="utf-8"?>
<!-- Generator: Adobe Illustrator 18.1.1, SVG Export Plug-In . SVG Version: 6.00 Build 0)  -->
<!DOCTYPE svg PUBLIC "-//W3C//DTD SVG 1.1//EN" "http://www.w3.org/Graphics/SVG/1.1/DTD/svg11.dtd">
<svg version="1.1" id="Warstwa_1" xmlns="http://www.w3.org/2000/svg" xmlns:xlink="http://www.w3.org/1999/xlink" x="0px" y="0px"
	 width="300px" height="300px" viewBox="0 0 300 300" enable-background="new 0 0 300 300" xml:space="preserve">
<path fill="none" stroke="#FFFFFF" stroke-width="4" stroke-miterlimit="10" d="M32,239.1V76c0-7.4,6-13.5,13.5-13.5h213.1
	c7.4,0,13.5,6,13.5,13.5v163.1"/>
<path fill="none" stroke="#FFFFFF" stroke-width="4" stroke-miterlimit="10" d="M46.1,236.7V81.6c0-2.6,2.1-4.7,4.7-4.7H252
	c3.2,0,5.9,2.6,5.9,5.9v153.9"/>
<path fill="none" stroke="#FFFFFF" stroke-width="4" stroke-miterlimit="10" d="M294,258H10c-1.6,0-3-1.4-3-3v-14c0-1.6,1.4-3,3-3
	h284c1.6,0,3,1.4,3,3v14C297,256.6,295.6,258,294,258z"/>
<path fill="none" stroke="#FFFFFF" stroke-width="4" stroke-miterlimit="10" d="M173.3,238v5.5c0,0.8-0.7,1.5-1.5,1.5h-39.6
	c-0.8,0-1.5-0.7-1.5-1.5V238"/>
</svg>
